# xmcd
#
# Track frame offsets:
#	150
#	16937
#	43212
#	74602
#	110367
#	139895
#	154602
#	213680
#	231927
#	267470
#
# Disc length: 3786 seconds
#
# Revision: 0
# Processed by: cddbd v1.5.1PL0 Copyright (c) Steve Scherf et al.
# Submitted via: audiograbber 1.83.01
#
DISCID=960ec80a
DTITLE=Jimi Hendrix - The Experience
DYEAR=1900
DGENRE=
TTITLE0=n
TTITLE1=n df
TTITLE2=f
TTITLE3=h
TTITLE4=g
TTITLE5=r
TTITLE6=r
TTITLE7=r
TTITLE8=Voodoo Child (Slight Return)
TTITLE9=Izabella
EXTD=
EXTT0=
EXTT1=
EXTT2=
EXTT3=
EXTT4=
EXTT5=
EXTT6=
EXTT7=
EXTT8=
EXTT9=
PLAYORDER=
